<?xml version="1.0" encoding="UTF-8" standalone="no"?>
<!-- Created with Inkscape (http://www.inkscape.org/) -->

<svg
   xmlns:dc="http://purl.org/dc/elements/1.1/"
   xmlns:cc="http://creativecommons.org/ns#"
   xmlns:rdf="http://www.w3.org/1999/02/22-rdf-syntax-ns#"
   xmlns:svg="http://www.w3.org/2000/svg"
   xmlns="http://www.w3.org/2000/svg"
   xmlns:sodipodi="http://sodipodi.sourceforge.net/DTD/sodipodi-0.dtd"
   xmlns:inkscape="http://www.inkscape.org/namespaces/inkscape"
   version="1.1"
   id="svg2"
   width="2184.4287"
   height="1232.4962"
   viewBox="0 0 2184.4287 1232.4962"
   sodipodi:docname="Sante-publique-France-logo.svg"
   inkscape:version="0.92.4 (5da689c313, 2019-01-14)">
  <metadata
     id="metadata8">
    <rdf:RDF>
      <cc:Work
         rdf:about="">
        <dc:format>image/svg+xml</dc:format>
        <dc:type
           rdf:resource="http://purl.org/dc/dcmitype/StillImage" />
        <dc:title></dc:title>
      </cc:Work>
    </rdf:RDF>
  </metadata>
  <defs
     id="defs6" />
  <sodipodi:namedview
     pagecolor="#ffffff"
     bordercolor="#666666"
     borderopacity="1"
     objecttolerance="10"
     gridtolerance="10"
     guidetolerance="10"
     inkscape:pageopacity="0"
     inkscape:pageshadow="2"
     inkscape:window-width="1920"
     inkscape:window-height="1001"
     id="namedview4"
     showgrid="false"
     inkscape:pagecheckerboard="true"
     fit-margin-top="0"
     fit-margin-left="0"
     fit-margin-right="0"
     fit-margin-bottom="0"
     inkscape:zoom="0.70710678"
     inkscape:cx="1264.1701"
     inkscape:cy="527.44824"
     inkscape:window-x="-9"
     inkscape:window-y="-9"
     inkscape:window-maximized="1"
     inkscape:current-layer="svg2" />
  <path
     style="fill:#252525;fill-opacity:1;stroke:#252525;stroke-width:0.87047625;stroke-opacity:1"
     d="M 901.85018,980.32814 V 869.34245 h 64.85027 64.85065 v 6.96377 6.96383 h -24.231 c -13.32689,0 -38.9878,0.25961 -57.024,0.57667 l -32.79259,0.57666 0.22576,45.77619 0.22574,45.77619 48.52896,0.22495 48.52893,0.22493 v 6.95653 6.95648 h -49.18199 -49.18203 v 50.48765 50.4876 h -7.39895 -7.39895 z"
     id="path28"
     inkscape:connector-curvature="0" />
  <path
     style="fill:#252525;fill-opacity:1;stroke:#252525;stroke-width:0.87047625;stroke-opacity:1"
     d="m 1055.0537,1016.4529 v -74.86094 h 7.8344 7.8343 v 9.21301 9.21306 l 5.4406,-4.97254 c 11.2955,-10.32424 20.2751,-14.19995 34.6013,-14.93441 14.159,-0.72587 24.3673,2.29349 32.6427,9.65496 l 4.3525,3.87158 -5.1757,5.27334 -5.1757,5.27341 -2.6586,-2.16632 c -9.182,-7.48212 -18.5817,-10.11593 -29.9107,-8.38113 -13.88,2.1254 -22.9813,9.27281 -30.2581,23.76167 l -3.8583,7.68239 v 51.73952 c 0,28.4568 -0.2379,52.3592 -0.5285,53.1165 -0.4237,1.1042 -1.9749,1.3769 -7.8344,1.3769 h -7.3058 z"
     id="path30"
     inkscape:connector-curvature="0" />
  <path
     style="fill:#252525;fill-opacity:1;stroke:#252525;stroke-width:0.87047625;stroke-opacity:1"
     d="m 1206.3194,1091.2984 c -12.9475,-1.2365 -25.7798,-9.5537 -31.068,-20.1364 -3.6325,-7.2696 -4.694,-13.4475 -4.2364,-24.6546 0.3547,-8.7172 0.6603,-10.1427 3.3137,-15.5286 4.9685,-10.0838 15.8629,-18.738 27.0625,-21.4976 2.1471,-0.529 17.6867,-1.1704 35.4855,-1.4647 l 31.6659,-0.5237 -0.4467,-13.5823 c -0.3467,-10.52922 -0.8627,-14.88421 -2.2962,-19.37389 -2.451,-7.67514 -7.7456,-13.6105 -15.5816,-17.46708 l -5.8022,-2.85566 h -17.8616 c -17.4876,0 -17.9641,0.048 -22.7637,2.2985 -2.8662,1.34386 -7.64,4.89914 -11.4935,8.55963 l -6.5914,6.26109 -4.3925,-4.10872 c -2.4159,-2.2598 -4.3928,-4.73765 -4.3928,-5.50628 0,-2.26666 12.8532,-14.0377 17.7572,-16.26223 8.0214,-3.63835 17.8455,-5.13274 33.6009,-5.1111 16.3491,0.0242 21.7852,1.09506 31.5828,6.23144 10.7368,5.62895 19.1859,16.52057 21.5518,27.78376 0.5156,2.45361 1.1126,27.87574 1.4226,60.59054 l 0.5346,56.3634 h -7.5247 -7.5252 v -6.5559 c 0,-8.3158 -1.1114,-8.976 -6.5979,-3.9188 -2.1777,2.0074 -6.8926,5.0427 -10.4776,6.7453 -5.7264,2.7193 -7.7029,3.1808 -16.2657,3.7974 -11.4516,0.8247 -19.3935,0.8016 -28.6598,-0.084 z m 31.9698,-13.0758 c 11.221,-1.6025 21.7188,-8.7486 26.1467,-17.7994 2.607,-5.3286 3.8015,-15.1114 3.8535,-31.566 l 0.04,-9.7928 -25.026,0.01 c -13.7647,0 -27.4891,0.4062 -30.4988,0.8946 -12.1832,1.977 -20.7303,6.9694 -24.5116,14.3169 -2.0362,3.957 -2.2236,5.24 -2.2236,15.2253 0,10.122 0.1652,11.2165 2.3079,15.2566 1.269,2.3938 3.2278,5.2044 4.3521,6.2458 2.6505,2.4542 10.0459,6.1418 14.3399,7.15 4.6235,1.0857 23.7949,1.124 31.2289,0.062 z"
     id="path32"
     inkscape:connector-curvature="0" />
  <path
     style="fill:#252525;fill-opacity:1;stroke:#252525;stroke-width:0.87047625;stroke-opacity:1"
     d="m 1319.6785,1016.4529 v -74.86094 h 7.399 7.3993 v 8.26955 c 0,4.98015 0.3508,8.2695 0.878,8.2695 0.483,0 3.2037,-2.1381 6.0461,-4.75135 9.465,-8.70137 22.5464,-13.54177 36.5211,-13.51356 25.7657,0.052 44.5876,13.70133 50.9941,36.98013 1.5423,5.60347 2.8791,46.85867 2.9972,92.48807 l 0.056,21.9796 h -7.3062 c -5.859,0 -7.4103,-0.2729 -7.834,-1.3769 -0.2902,-0.7573 -0.5284,-25.2776 -0.5284,-54.4895 v -53.11256 l -3.6225,-6.96266 c -8.3258,-16.003 -18.9751,-22.50004 -36.7969,-22.44901 -17.6665,0.0504 -29.2479,7.09335 -36.9915,22.49486 l -3.5435,7.04758 -0,36.79699 c -0,20.2383 -0.258,44.7291 -0.5732,54.424 l -0.5712,17.6272 h -7.2607 -7.2611 z"
     id="path34"
     inkscape:connector-curvature="0" />
  <path
     style="fill:#252525;fill-opacity:1;stroke:#252525;stroke-width:0.87047625;stroke-opacity:1"
     d="m 1513.1397,1091.2797 c -12.2582,-2.2055 -21.2604,-7.1715 -30.2287,-16.6749 -7.2478,-7.6805 -13.2164,-18.2936 -16.0782,-28.5893 -3.9829,-14.3303 -3.9817,-45.6703 0,-60.00545 2.9827,-10.73136 8.0351,-19.32708 16.6676,-28.35663 12.7641,-13.35154 22.7789,-17.3201 43.7838,-17.34989 10.607,-0.0162 13.0233,0.25801 18.6408,2.1077 7.7453,2.55001 17.1179,8.56381 23.3611,14.98939 l 4.5711,4.70467 -4.5711,4.4867 -4.5714,4.48673 -6.5286,-5.58287 c -8.1834,-6.99812 -13.1507,-9.71828 -20.6473,-11.30681 -11.5878,-2.45547 -23.4493,-1.0417 -33.3988,3.98067 -10.9417,5.52341 -20.7702,18.46488 -23.838,31.38821 -3.4524,14.54408 -3.4435,39.05318 0.04,52.74448 4.0554,16.0334 15.6985,29.4467 29.7607,34.2848 18.043,6.2076 33.7383,2.87 48.0097,-10.2093 l 6.4343,-5.8967 4.7347,5.0869 4.7347,5.0868 -4.205,4.2955 c -5.828,5.9531 -14.9277,11.8276 -22.2827,14.3855 -5.1375,1.7866 -8.2157,2.2075 -17.9979,2.4608 -6.4908,0.1681 -13.8583,-0.065 -16.3734,-0.517 z"
     id="path36"
     inkscape:connector-curvature="0" />
  <path
     style="fill:#252525;fill-opacity:1;stroke:#252525;stroke-width:0.87047625;stroke-opacity:1"
     d="m 1651.734,1091.2767 c -14.8463,-1.9411 -27.2129,-9.7772 -35.5512,-22.5272 -7.6541,-11.7039 -10.4365,-21.441 -11.9881,-41.9536 -2.4389,-32.24003 3.7974,-55.96973 18.9719,-72.19241 5.2289,-5.59037 10.5489,-8.89204 19.0234,-11.80682 6.2017,-2.13311 8.2496,-2.40146 18.7151,-2.45278 9.8165,-0.048 12.7609,0.26001 17.881,1.87086 11.9599,3.76285 24.4596,14.2438 30.3452,25.44366 5.2144,9.92304 10.079,31.87186 10.0906,45.53019 v 5.8758 h -51.0541 -51.0541 l 0.5305,8.0519 c 0.9465,14.3741 7.2518,31.3918 14.5741,39.3358 9.5795,10.3924 29.8406,15.2018 46.3038,10.9911 8.4192,-2.1532 13.524,-4.7748 21.1144,-10.8435 3.3512,-2.6794 6.4024,-4.7709 6.7806,-4.6478 0.3789,0.1233 2.8416,1.9815 5.4752,4.1296 l 4.7879,3.9057 -4.6049,4.2877 c -15.9802,14.8799 -35.1871,20.2911 -60.3465,17.0018 z m 52.4212,-90.71 c -1.0615,-14.32412 -6.1739,-27.09958 -14.2199,-35.53478 -14.7499,-15.46373 -40.41,-16.1863 -56.3834,-1.58765 -8.2105,7.50416 -14.7165,22.88197 -15.8892,37.55773 l -0.5394,6.7462 h 43.7822 43.7822 z"
     id="path38"
     inkscape:connector-curvature="0" />
  <path
     style="fill:#252525;fill-opacity:1;stroke:#252525;stroke-width:0.87047625;stroke-opacity:1"
     d="m 1143.0502,416.72189 c -20.7565,-2.40516 -37.47,-17.90678 -42.7582,-39.65781 -2.0741,-8.53086 -2.0793,-24.44291 0,-31.26757 2.663,-8.78409 6.5366,-15.35325 12.6367,-21.42984 13.647,-13.59517 22.3674,-15.78149 67.8979,-17.02234 l 22.0973,-0.60228 -0.5507,-7.16247 c -0.8522,-11.08855 -3.3737,-18.09804 -8.2721,-22.9965 -5.2454,-5.24542 -10.1656,-6.95225 -21.9163,-7.60289 -15.7896,-0.87421 -24.47,1.60416 -33.9447,9.69157 -2.5582,2.18336 -4.8746,3.96969 -5.1483,3.96969 -0.2741,0 -6.6943,-6.20611 -14.2686,-13.79135 l -13.7711,-13.79137 5.5119,-4.78083 c 10.1031,-8.76328 18.8896,-13.70708 29.9163,-16.83259 6.6681,-1.89002 35.3718,-2.73032 48.2802,-1.41344 22.7125,2.31704 42.0302,14.16931 49.8565,30.58862 5.684,11.92533 5.8864,13.46708 6.7991,51.79335 0.4555,19.15049 0.7232,49.90004 0.5946,68.33239 l -0.2338,33.51336 -21.5442,0.23261 -21.5442,0.233 v -7.84949 c 0,-4.31721 -0.3225,-7.84953 -0.7188,-7.84953 -0.395,0 -1.6685,1.01292 -2.8291,2.25094 -2.7215,2.90294 -12.4296,9.33676 -16.9083,11.20582 -5.9199,2.47022 -26.8505,3.66658 -39.1716,2.23891 z m 38.983,-37.15474 c 9.2912,-2.71508 15.8021,-8.6467 18.0088,-16.40665 0.5446,-1.91504 1.2235,-8.32449 1.5089,-14.24321 l 0.5184,-10.76129 -22.1106,0.42651 c -13.4043,0.25839 -23.4199,0.83406 -25.436,1.46161 -4.3186,1.34405 -10.0184,6.52482 -12.0244,10.92971 -0.9856,2.16426 -1.5931,5.55172 -1.6048,8.95132 -0.04,10.51445 6.2371,18.02298 16.8486,20.16353 2.4522,0.49472 5.2422,1.07424 6.1997,1.28791 2.8815,0.64293 13.2474,-0.39386 18.0914,-1.80944 z"
     id="path42"
     inkscape:connector-curvature="0" />
  <path
     style="fill:#252525;fill-opacity:1;stroke:#252525;stroke-width:0.87047625;stroke-opacity:1"
     d="m 1290.5963,324.42432 v -92.27046 h 20.8597 20.8601 l 0.2499,8.32066 0.25,8.3207 6.5282,-4.88951 c 12.7677,-9.56203 22.0622,-12.58099 38.8148,-12.60724 17.9818,-0.0282 30.4714,4.68213 41.3074,15.57855 6.806,6.84377 11.3976,14.32754 14.8644,24.22743 2.3664,6.75663 3.1916,29.24603 3.4738,94.66749 l 0.2177,50.48765 -21.3443,0.23261 -21.3442,0.2326 -0.5749,-21.04733 c -0.3144,-11.576 -0.5982,-34.00837 -0.6269,-49.84965 -0.04,-15.84131 -0.3628,-34.48474 -0.7445,-41.42984 -0.82,-14.95284 -1.8766,-17.70178 -9.773,-25.42832 -6.3601,-6.22343 -11.635,-8.04834 -21.5639,-7.46014 -11.6201,0.68838 -20.0793,6.28088 -25.1836,16.64905 l -2.7147,5.5143 -0.2136,43.01343 c -0.1169,23.65737 -0.3346,51.33736 -0.4842,61.51102 l -0.2701,18.49764 h -21.293 -21.2931 z"
     id="path44"
     inkscape:connector-curvature="0" />
  <path
     style="fill:#252525;fill-opacity:1;stroke:#252525;stroke-width:0.87047625;stroke-opacity:1"
     d="m 1545.6344,415.7937 c -9.113,-0.49279 -13.1749,-1.12727 -18.0326,-2.81663 -13.5405,-4.70891 -23.3752,-14.84488 -28.3485,-29.21673 -2.4155,-6.98148 -2.6614,-8.83799 -3.3024,-24.95222 -0.379,-9.57522 -0.7156,-32.96645 -0.743,-51.98048 l -0.048,-34.57097 -8.9223,-0.24793 -8.9224,-0.24791 -0.2338,-17.19191 -0.2379,-17.19189 h 9.1586 9.1582 v -26.98477 -26.98477 h 22.1848 22.1843 l 0.2298,26.76715 0.2298,26.76713 15.451,0.23785 15.4509,0.23784 v 17.38947 17.38943 h -15.7706 -15.7711 l 0.5826,46.35287 c 0.3184,25.49405 0.8175,47.72384 1.1041,49.3995 1.2489,7.29645 5.5869,9.50662 20.0623,10.22107 l 9.7927,0.48336 v 19.02111 19.02113 l -6.7463,-0.13264 c -3.7103,-0.0729 -12.0393,-0.41876 -18.5086,-0.76859 z"
     id="path46"
     inkscape:connector-curvature="0" />
  <path
     style="fill:#252525;fill-opacity:1;stroke:#252525;stroke-width:0.87047625;stroke-opacity:1"
     d="m 1670.5591,417.45441 c -38.7782,-4.84374 -61.6325,-30.9779 -65.794,-75.23511 -1.2496,-13.29425 -0.5591,-37.11498 1.3485,-46.49581 5.139,-25.27472 19.4826,-46.72151 37.7647,-56.46573 2.7312,-1.45564 8.4806,-3.72185 12.7763,-5.03603 7.2792,-2.22674 8.9078,-2.39279 23.9149,-2.43838 18.3075,-0.0556 23.3434,0.86252 35.2541,6.4275 12.8145,5.98708 22.5552,15.13503 30.209,28.37023 7.7512,13.4035 11.096,26.62978 12.4267,49.13848 0.2701,4.54822 0.7034,11.30246 0.9655,15.00935 l 0.4765,6.7398 -56.4226,0.22414 -56.4225,0.22414 0.2459,5.6581 c 0.3426,7.91169 2.1938,13.69053 6.3988,19.98749 7.3417,10.9945 16.2999,15.68349 31.2212,16.34219 14.8007,0.65339 24.2181,-2.41036 36.5598,-11.89427 l 5.6582,-4.34791 13.0572,13.08354 13.0568,13.08353 -5.2228,4.82045 c -10.807,9.97448 -24.4814,17.9052 -35.6895,20.69866 -10.8162,2.6959 -29.5148,3.63832 -41.7827,2.10592 z m 45.1859,-113.26864 c -2.2349,-13.44264 -6.0521,-21.80636 -12.7714,-27.98126 -12.5025,-11.48998 -33.1151,-10.75312 -45.4946,1.62641 -5.9861,5.98589 -8.8357,12.8321 -10.4265,25.04913 l -0.5381,4.13477 h 34.8505 34.8505 z"
     id="path48"
     inkscape:connector-curvature="0" />
  <path
     style="fill:#252525;fill-opacity:1;stroke:#252525;stroke-width:0.87047625;stroke-opacity:1"
     d="m 1669.0885,201.92918 -4.9528,-0.32574 2.8812,-8.01003 c 1.5843,-4.40552 6.3093,-17.50912 10.4998,-29.11908 l 7.619,-21.10906 h 22.6186 c 20.1364,0 22.5612,0.14905 22.0972,1.35826 -0.5248,1.36763 -8.6147,14.05599 -26.8848,42.16555 l -9.9007,15.23336 -9.5125,0.0661 c -5.2322,0.0363 -11.7415,-0.0802 -14.465,-0.25961 z"
     id="path50"
     inkscape:connector-curvature="0" />
  <path
     style="fill:#252525;fill-opacity:1;stroke:#252525;stroke-width:0.87047625;stroke-opacity:1"
     d="m 902.07351,804.34688 c -0.31847,-0.31928 -0.5801,-57.11774 -0.5801,-126.21905 V 552.48912 h 21.73003 21.73045 l 0.24994,8.36552 0.24994,8.36553 6.35768,-5.32782 c 11.7543,-9.85047 19.2496,-12.23396 38.55041,-12.25862 19.56244,-0.0243 31.04784,4.03753 41.70524,14.75191 9.263,9.31242 15.7159,23.66508 17.521,38.97107 1.4743,12.49954 0.4572,79.85604 -1.321,87.47263 -6.687,28.64686 -27.6826,45.14369 -57.54847,45.21806 -17.67945,0.0439 -28.97903,-3.98989 -40.25967,-14.37296 l -3.69947,-3.40516 v 42.32895 42.32896 h -22.05215 c -12.12839,0 -22.31294,-0.26123 -22.63221,-0.58031 z m 86.31344,-108.61011 c 7.62995,-2.69211 12.70695,-8.64998 15.96175,-18.73266 1.6097,-4.98568 1.8898,-8.40547 2.2522,-27.4569 0.4894,-25.74479 -0.3708,-34.88424 -4.0074,-42.6589 -5.70544,-12.19236 -15.14784,-16.81127 -31.0108,-15.16943 -10.58605,1.09574 -18.1898,8.48727 -22.34561,21.72234 -1.93742,6.17111 -2.04385,7.7552 -2.04385,30.44789 0,25.61411 0.55269,29.94339 5.00117,39.17144 2.77149,5.74923 9.2114,11.81215 14.27142,13.43525 5.00197,1.6046 16.33381,1.21224 21.92112,-0.75903 z"
     id="path52"
     inkscape:connector-curvature="0" />
  <path
     style="fill:#252525;fill-opacity:1;stroke:#252525;stroke-width:0.87047625;stroke-opacity:1"
     d="m 1137.8543,737.85767 c -11.0508,-1.72834 -20.8282,-6.18337 -28.5585,-13.01228 -7.7029,-6.80482 -15.5425,-19.73267 -18.599,-30.67033 -1.6536,-5.91847 -2.8106,-46.74506 -2.8747,-101.42643 l -0.048,-40.25951 h 22.1973 22.1972 l 0.04,49.83473 c 0.04,56.50893 0.7253,73.46908 3.2605,79.16197 2.2636,5.08204 8.3245,10.94601 14.1251,13.66557 4.0236,1.88645 6.0376,2.2468 12.6218,2.25829 6.8149,0.0127 8.4737,-0.30032 12.7452,-2.39794 5.4874,-2.69473 10.9791,-8.15421 13.8365,-13.75473 2.9424,-5.76791 3.385,-15.41965 3.4189,-74.58075 l 0.04,-54.18714 h 22.1972 22.1969 v 91.8352 91.83525 h -21.762 -21.7618 v -7.39903 c 0,-4.49335 -0.3508,-7.39907 -0.8962,-7.39907 -0.4926,0 -2.9227,1.60211 -5.3999,3.56024 -12.8524,10.15914 -32.8752,15.45036 -48.9522,12.93596 z"
     id="path54"
     inkscape:connector-curvature="0" />
  <path
     style="fill:#252525;fill-opacity:1;stroke:#252525;stroke-width:0.87047625;stroke-opacity:1"
     d="m 1354.8367,737.81416 c -11.0271,-1.44967 -19.654,-5.65984 -29.2185,-14.25937 l -4.5553,-4.09559 v 8.35018 8.35019 h -21.7619 -21.7619 V 610.81099 485.46245 h 22.1968 22.1973 v 40.91237 c 0,22.50181 0.2378,40.91237 0.5253,40.91237 0.2902,0 2.9331,-2.01946 5.8759,-4.48767 6.3565,-5.33164 13.9139,-9.06612 21.0512,-10.40219 2.8545,-0.53443 10.6743,-0.98484 17.3771,-1.00093 10.8404,-0.0242 12.956,0.22253 19.1504,2.25045 22.669,7.42073 35.6875,24.91314 38.7931,52.12464 1.3239,11.6002 1.3279,64.48533 0,76.13051 -3.672,32.34415 -18.6671,49.86985 -47.0684,55.0119 -7.6154,1.37877 -16.4999,1.72946 -22.8072,0.90026 z m 8.0306,-41.70273 c 7.1329,-2.04563 12.8992,-8.36802 16.5624,-18.15908 3.849,-10.28682 4.1086,-53.47838 0.395,-65.97754 -4.0082,-13.49779 -16.083,-22.05415 -29.5929,-20.96971 -13.3874,1.07462 -22.2618,9.25377 -26.0963,24.05213 -2.8106,10.8468 -2.5204,47.00793 0.4906,61.0459 2.0221,9.42897 11.2056,19.18475 19.7462,20.97633 3.7531,0.78729 14.2977,0.23541 18.4934,-0.96803 z"
     id="path56"
     inkscape:connector-curvature="0" />
  <path
     style="fill:#252525;fill-opacity:1;stroke:#252525;stroke-width:0.87047625;stroke-opacity:1"
     d="m 1503.8622,735.20676 c -15.3671,-1.98951 -27.3613,-10.19266 -34.3619,-23.50078 -6.3686,-12.1068 -5.9566,-4.23389 -6.3368,-121.13354 l -0.3426,-105.10999 h 21.757 21.7575 l 0.2862,101.19282 c 0.2661,94.64495 0.387,101.3925 1.8237,104.27777 2.6542,5.32585 5.5821,6.38749 18.7014,6.78113 l 11.5338,0.34628 v 19.04963 19.04965 l -14.5806,-0.10998 c -8.019,-0.0605 -17.1268,-0.43978 -20.2393,-0.84269 z"
     id="path58"
     inkscape:connector-curvature="0" />
  <path
     style="fill:#252525;fill-opacity:1;stroke:#252525;stroke-width:0.87047625;stroke-opacity:1"
     d="m 1577.8533,644.32432 v -91.8352 h 21.7619 21.7619 v 91.8352 91.83525 h -21.7619 -21.7619 z"
     id="path60"
     inkscape:connector-curvature="0" />
  <path
     style="fill:#252525;fill-opacity:1;stroke:#252525;stroke-width:0.87047625;stroke-opacity:1"
     d="m 1576.9826,501.56624 v -17.84477 h 22.1972 22.1973 v 17.84477 17.84475 h -22.1973 -22.1972 z"
     id="path62"
     inkscape:connector-curvature="0" />
  <path
     style="fill:#252525;fill-opacity:1;stroke:#252525;stroke-width:0.87047625;stroke-opacity:1"
     d="m 1762.3942,762.68994 v -42.23723 l -5.8756,4.85789 c -10.7577,8.89402 -21.9626,12.76539 -37.2128,12.85723 -17.8169,0.10728 -32.9909,-5.56555 -43.5242,-16.27117 -13.7659,-13.99178 -17.542,-28.38442 -18.4514,-70.32923 -0.8095,-37.32751 1.6379,-56.23672 9.2884,-71.77069 8.6636,-17.59083 23.0777,-26.45179 45.6708,-28.07569 9.7653,-0.70189 21.2685,-0.042 26.345,1.51127 4.9391,1.51127 13.0367,6.27109 18.909,11.115 l 5.7211,4.71913 v -8.28869 -8.28864 h 21.3269 21.3266 v 126.219 126.21907 h -21.7619 -21.7619 z m -18.4724,-67.44306 c 8.8816,-3.82073 14.5016,-12.44897 16.8538,-25.87545 1.3283,-7.58165 1.2755,-39.32441 -0.081,-48.92375 -2.3421,-16.56911 -8.9421,-25.12551 -21.9517,-28.45847 -14.6326,-3.74869 -28.6448,3.2471 -33.8601,16.90533 -2.6239,6.8715 -4.0256,32.86188 -2.8388,52.64088 0.7962,13.26785 1.0191,14.48483 3.6729,20.03135 4.1586,8.69164 9.498,13.31553 17.9419,15.53747 4.6178,1.21526 15.4235,0.22494 20.2638,-1.85736 z"
     id="path64"
     inkscape:connector-curvature="0" />
  <path
     style="fill:#252525;fill-opacity:1;stroke:#252525;stroke-width:0.87047625;stroke-opacity:1"
     d="m 1896.8826,737.79985 c -11.947,-1.08211 -21.9231,-5.47374 -30.9116,-13.60772 -8.4293,-7.62826 -15.4618,-19.28149 -18.2559,-30.25065 -1.4936,-5.86428 -2.2966,-36.08587 -2.4921,-93.79382 l -0.1613,-47.65854 h 22.211 22.2114 l 0.04,52.44616 c 0.04,56.97307 0.6079,70.57224 3.302,76.66208 2.5663,5.80153 7.2925,10.47995 13.4237,13.28719 4.7298,2.16575 6.4866,2.49345 13.2849,2.47826 9.0139,-0.0201 13.3342,-1.63444 19.943,-7.45152 5.9018,-5.19512 8.2834,-10.84014 8.7801,-20.80991 0.5543,-11.135 1.3033,-64.6677 1.3061,-93.32704 v -23.28522 h 21.7619 21.7618 v 91.8352 91.83525 h -21.3265 -21.3269 v -8.33544 -8.33546 l -5.7695,4.78885 c -12.8508,10.66676 -28.9553,15.22601 -47.7647,13.52233 z"
     id="path66"
     inkscape:connector-curvature="0" />
  <path
     style="fill:#252525;fill-opacity:1;stroke:#252525;stroke-width:0.87047625;stroke-opacity:1"
     d="m 2098.3978,737.78554 c -31.6058,-3.22141 -54.7399,-21.66876 -64.2617,-51.24313 -4.022,-12.4917 -4.9435,-20.1938 -4.8963,-40.91236 0.04,-17.699 0.262,-20.59198 2.2982,-30.03143 1.2392,-5.74513 3.5136,-13.88778 5.0543,-18.09474 7.817,-21.34558 26.5309,-38.39558 48.6238,-44.30026 8.9082,-2.38103 32.3475,-2.63584 41.2372,-0.44828 19.4217,4.77916 37.5801,19.46573 46.7105,37.77937 6.8362,13.71228 9.3694,26.43208 10.2337,51.38603 l 0.5805,16.76644 h -56.2823 -56.2826 v 2.82905 c 0.04,4.86253 2.5276,13.76795 5.3777,19.11528 3.3132,6.21672 10.2635,12.76728 17.0263,16.04736 4.4941,2.17961 6.1219,2.46038 15.9916,2.75826 16.9502,0.51152 24.8224,-1.90859 36.2909,-11.15704 l 5.4966,-4.43241 6.6903,6.07059 c 3.6797,3.33879 9.7927,9.21123 13.5849,13.04986 l 6.8946,6.9793 -4.6259,4.18372 c -15.6646,14.16778 -30.935,21.34743 -50.4885,23.73804 -8.3677,1.02305 -14.6109,1.00241 -25.2667,-0.0838 z m 41.7702,-113.26451 c -0.04,-5.42792 -2.3119,-14.25317 -4.9737,-19.14428 -1.2812,-2.35364 -4.6154,-6.39594 -7.4099,-8.98291 -6.7402,-6.2405 -14.1263,-8.67465 -24.2225,-7.98263 -12.0224,0.82402 -21.025,6.46333 -26.0318,16.30647 -3.2045,6.29979 -6.117,15.87638 -6.117,20.11262 v 3.39023 h 34.3841 34.3837 v -3.6995 z"
     id="path68"
     inkscape:connector-curvature="0" />
  <path
     style="fill:#fd008f;fill-opacity:1;stroke:#fd008f;stroke-width:0.43523812;stroke-opacity:1"
     d="m 628.51263,1232.0344 c -5.95335,-0.7273 -12.57588,-3.378 -17.9334,-7.1778 -5.07415,-3.5987 -10.82189,-10.6025 -13.49461,-16.4431 -3.18791,-6.9668 -3.90346,-18.613 -1.69836,-27.643 2.29176,-9.3869 10.04829,-19.0653 19.39756,-24.2044 5.68889,-3.1269 7.00993,-3.4066 17.13279,-3.6276 16.70591,-0.3649 21.82881,1.4517 31.16962,11.0515 7.56625,7.7764 10.10835,13.879 10.66869,25.6153 0.35878,7.497 -0.31444,12.8598 -2.19703,17.4743 -1.93217,4.7409 -5.85096,10.6623 -9.17431,13.8628 -8.06935,7.7717 -22.46413,12.4855 -33.87095,11.092 z"
     id="path70"
     inkscape:connector-curvature="0" />
  <path
     style="fill:#fd008f;fill-opacity:1;stroke:#fd008f;stroke-width:0.43523812;stroke-opacity:1"
     d="m 621.65749,694.29128 c -31.62473,-4.9303 -59.30126,-31.57136 -65.09619,-62.66123 -1.15453,-6.1953 -1.17388,-25.48329 -0.0402,-31.5548 1.51856,-8.06963 5.19709,-17.36452 9.94589,-25.13204 12.4751,-20.40497 34.98035,-34.80644 58.70222,-37.56426 6.88658,-0.8006 18.09869,-0.31444 24.50111,1.06256 31.82551,6.84466 54.82538,29.69929 61.5612,61.17314 1.08964,5.09158 1.17067,6.2109 1.18236,16.34682 0,12.39178 -0.55712,16.41891 -3.68012,25.92995 -8.35598,25.44673 -30.05053,45.00392 -56.41167,50.85371 -9.58107,2.12613 -22.70882,2.78786 -30.67377,1.54615 z"
     id="path72"
     inkscape:connector-curvature="0" />
  <path
     style="fill:#fd008f;fill-opacity:1;stroke:#fd008f;stroke-width:0.43523812;stroke-opacity:1"
     d="M 629.0879,80.56947 C 613.8796,78.718 600.89092,68.12452 596.06189,53.63383 589.63568,34.35059 598.04205,13.5478 615.91257,4.5095204 c 6.02631,-3.04781 11.28184,-4.30357996 17.96283,-4.29181996 14.82612,0.0262 27.21657,7.21330996 35.44596,20.56154956 2.69086,4.36439 3.63537,7.076 4.20942,12.08793 0.57123,4.98376 0.21769,14.64794 -0.69459,18.95379 -1.15455,5.45388 -3.89257,10.19565 -9.18076,15.9011 -5.90536,6.37123 -12.74357,10.18184 -21.62321,12.04972 -3.15726,0.66413 -10.38368,1.10945 -12.94432,0.79768 z"
     id="path74"
     inkscape:connector-curvature="0" />
  <path
     style="fill:#002dfc;fill-opacity:1;stroke:#002dfc;stroke-width:0.43523812;stroke-opacity:1"
     d="m 625.2058,1089.2299 c -4.34286,-0.5544 -11.53663,-2.1573 -15.66866,-3.4912 -11.79582,-3.8081 -19.70432,-8.8358 -30.56854,-19.4336 -8.49304,-8.2847 -12.16147,-13.1883 -16.05363,-21.4586 -10.85978,-23.0748 -10.35548,-48.28558 1.42181,-71.09284 4.07317,-7.88717 9.91727,-15.34116 17.33961,-22.11603 9.68386,-8.839 23.67309,-15.76778 37.05361,-18.35214 27.02025,-5.2189 53.91432,3.36267 72.67978,23.19124 11.36247,12.00611 18.46794,26.65466 20.87702,43.04135 0.9679,6.58262 0.64822,19.49772 -0.63654,25.72332 -5.15797,24.9913 -20.85647,45.4244 -43.35606,56.4326 -7.55295,3.6955 -14.78018,5.9426 -23.18936,7.2102 -3.86435,0.5825 -16.3455,0.7993 -19.89904,0.3458 z"
     id="path76"
     inkscape:connector-curvature="0" />
  <path
     style="fill:#002dfc;fill-opacity:1;stroke:#002dfc;stroke-width:0.43523812;stroke-opacity:1"
     d="m 368.31856,913.68061 c -12.04455,-1.23066 -26.8989,-8.83142 -36.91454,-18.88862 -7.251,-7.281 -12.17114,-15.26144 -15.21635,-24.68183 -2.23855,-6.92403 -2.97627,-11.71875 -2.97063,-19.31129 0,-10.6454 1.97009,-18.84168 6.7205,-28.07284 3.21049,-6.23868 5.97149,-10.00181 11.01941,-15.01995 7.93874,-7.8914 19.90429,-14.44888 28.91091,-15.8439 5.34705,-0.82822 19.03071,-1.1152 23.63037,-0.49559 5.38212,0.72494 11.26168,2.61248 17.12473,5.49757 17.83829,8.77816 30.97934,26.01517 34.89086,45.76535 1.15173,5.81712 1.02313,16.82731 -0.26203,22.50758 -3.97319,17.54016 -14.68381,32.8997 -28.31668,40.60716 -10.10153,5.71114 -26.80177,9.14343 -38.61533,7.93636 z"
     id="path78"
     inkscape:connector-curvature="0" />
  <path
     style="fill:#002dfc;fill-opacity:1;stroke:#002dfc;stroke-width:0.43523812;stroke-opacity:1"
     d="m 235.6893,714.10107 c -0.8381,-0.0967 -3.66158,-0.39426 -6.27503,-0.66069 -14.46896,-1.47547 -31.30345,-8.48093 -44.85288,-18.66483 -20.63353,-15.50858 -34.62519,-39.65417 -38.28596,-66.07187 -0.88366,-6.37759 -0.8897,-18.89837 0,-25.6418 2.34537,-18.02136 9.57339,-34.79856 20.87057,-48.44253 4.69882,-5.67442 14.16298,-14.96657 18.75256,-18.41088 4.57909,-3.43695 9.6903,-6.31377 17.82334,-10.0322 15.15549,-6.92906 23.85491,-8.44924 45.68936,-7.98371 12.75809,0.27209 14.51855,0.54126 23.72067,3.62843 40.03876,13.43261 65.77425,45.77858 69.24273,87.02984 1.78786,21.26435 -3.94941,43.29347 -16.01051,61.47388 -15.30906,23.07619 -39.99884,39.17562 -65.85606,42.94302 -4.334,0.63146 -21.55106,1.20986 -24.8067,0.83334 z"
     id="path80"
     inkscape:connector-curvature="0" />
  <path
     style="fill:#002dfc;fill-opacity:1;stroke:#002dfc;stroke-width:0.43523812;stroke-opacity:1"
     d="m 367.56634,441.62259 c -7.25222,-1.36619 -10.80578,-2.21118 -13.91911,-3.30965 -19.82849,-6.99648 -34.4595,-23.51077 -39.2454,-44.29645 -1.37063,-5.95397 -1.56937,-16.31947 -0.43738,-22.85001 2.3232,-13.40131 8.04434,-24.3279 17.89752,-34.18111 9.24728,-9.24748 19.56807,-14.89138 32.35519,-17.6934 2.75295,-0.60327 5.50266,-0.78157 12.05384,-0.78157 9.24244,0 12.36424,0.45392 19.34113,2.81213 20.22638,6.83694 35.34397,24.20239 39.91096,45.84479 1.3275,6.29116 1.31742,16.10826 -0.0403,22.49679 -2.00756,9.56558 -6.16418,18.98142 -11.54387,26.1497 -3.6249,4.82976 -10.91138,11.81002 -15.55013,14.89659 -10.21721,6.79821 -22.30008,10.68898 -34.09348,10.97833 -3.11173,0.0762 -6.14767,0.0467 -6.7459,-0.0661 z"
     id="path82"
     inkscape:connector-curvature="0" />
  <path
     style="fill:#002dfc;fill-opacity:1;stroke:#002dfc;stroke-width:0.43523812;stroke-opacity:1"
     d="m 618.88278,299.14557 c -20.95442,-4.57695 -40.80388,-18.54038 -52.29656,-36.7886 -2.31958,-3.68319 -6.10089,-11.95026 -7.69686,-16.82901 -2.87469,-8.78577 -3.51727,-13.25312 -3.4963,-24.30099 0,-8.91661 0.12091,-10.28194 1.18116,-15.25872 3.63012,-17.06851 11.81476,-31.2914 25.01025,-43.46053 11.19639,-10.32565 24.49749,-16.7667 39.19461,-18.98027 12.75085,-1.9204 27.42095,-0.97035 37.96146,2.4584 7.9855,2.59766 18.57236,8.67633 26.06846,14.96807 13.13583,11.02498 23.75535,28.54849 26.36276,43.5012 2.41472,13.84532 1.77132,30.58766 -1.55566,40.49231 -1.9217,5.7215 -7.75815,17.21798 -11.15205,21.96703 -3.99214,5.58667 -11.57048,13.34359 -16.97276,17.37287 -7.96211,5.9387 -19.6346,11.65328 -27.10692,13.27074 -5.71994,1.23819 -13.89047,2.04263 -22.84628,2.24944 -7.55658,0.17456 -9.22592,0.087 -12.65531,-0.66194 z"
     id="path84"
     inkscape:connector-curvature="0" />
  <path
     style="fill:#33fcfc;fill-opacity:1;stroke:#33fcfc;stroke-width:0.21761906;stroke-opacity:1"
     d="m 230.25881,272.88909 c -3.67126,-0.4003 -10.65741,-1.69054 -13.34383,-2.46458 -21.83526,-6.29108 -38.57381,-25.16567 -42.66189,-48.10605 -1.88462,-10.57549 -0.69862,-21.87573 3.39148,-32.31641 6.87167,-17.53992 21.03949,-31.34586 38.67257,-37.68492 22.7177,-8.16693 48.22139,-1.90893 64.8918,15.923 12.85686,13.75231 18.50383,32.94491 15.17604,51.57574 -4.21386,23.5882 -22.3315,43.81574 -45.2173,50.48247 -6.75435,1.96764 -16.05444,3.12002 -20.90887,2.59075 z"
     id="path86"
     inkscape:connector-curvature="0" />
  <path
     style="fill:#33fcfc;fill-opacity:1;stroke:#33fcfc;stroke-width:0.1538799;stroke-opacity:1"
     d="m 36.334031,656.26201 c -9.54681,-0.68477 -18.27727,-4.67829 -24.86838,-11.37508 -3.4450904,-3.50018 -6.0158104,-7.33304 -8.5268904,-12.7121 -2.48405004,-5.32057 -2.98513004,-8.26712 -2.83879004,-16.68158 0.0807,-4.66899 0.29426,-6.99055 0.89654,-9.83746 1.20413004,-5.68329 3.46566004,-10.41747 7.17200004,-15.01415 1.43633,-1.7814 5.2240904,-5.53255 7.1236204,-7.0546 4.17153,-3.34279 8.97839,-5.61403 14.0497,-6.63846 6.20248,-1.25294 15.65615,-1.24335 21.41963,0.0201 6.12306,1.3441 10.52558,3.65114 15.72227,8.23952 7.52553,6.64449 11.51969,13.8383 12.88951,23.21325 0.3628,2.48184 0.58896,7.44922 0.48012,10.53247 -0.23381,6.65185 -0.83488,9.08797 -3.62127,14.70125 -1.46455,2.9501 -2.67756,4.90884 -4.79114,7.73543 -1.91606,2.56231 -3.8321,4.63881 -5.57804,6.04595 -7.78433,6.27278 -18.87792,9.58784 -29.52888,8.82383 z"
     id="path88"
     inkscape:connector-curvature="0" />
  <path
     style="fill:#33fcfc;fill-opacity:1;stroke:#33fcfc;stroke-width:0.1538799;stroke-opacity:1"
     d="m 232.08093,1083.3285 c -6.51046,-0.4683 -13.52766,-2.1891 -19.56364,-4.7977 -12.51622,-5.4093 -23.37762,-14.8498 -30.38191,-26.4076 -3.55314,-5.8633 -6.52255,-13.7956 -7.83996,-20.9442 -0.74981,-4.0681 -0.93123,-6.2145 -0.93607,-11.0794 0,-4.8068 0.13296,-6.6378 0.78287,-10.4638 3.68577,-21.66898 18.83682,-39.66478 39.26114,-46.63332 3.94013,-1.34426 7.38323,-2.14801 11.88613,-2.77458 3.00489,-0.41821 9.93258,-0.57687 13.34625,-0.30557 13.78365,1.09497 25.05663,5.65628 35.35646,14.30617 2.08336,1.74948 6.20047,5.83873 8.14876,8.09373 8.65107,10.0123 13.02255,20.42397 14.18153,33.77517 0.31847,3.6586 0.22575,12.3684 -0.16124,15.5433 -1.22268,9.9936 -3.85468,17.1865 -9.2622,25.3133 -4.2687,6.4156 -9.702,11.8254 -16.21529,16.1456 -2.86984,1.9037 -4.48477,2.8267 -7.40822,4.2346 -9.6887,4.6657 -20.57671,6.7579 -31.19461,5.9944 z"
     id="path90"
     inkscape:connector-curvature="0" />
  <path
     style="fill:#252525;fill-opacity:1;stroke:#252525;stroke-width:0.10880954;stroke-opacity:1"
     d="m 633.55573,927.33887 c -2.18374,-0.45992 -3.21493,-3.00932 -1.99508,-4.93267 0.36283,-0.57256 1.19607,-1.10444 1.89107,-1.20759 0.95863,-0.14231 2.2978,0.44928 2.94846,1.30237 0.6595,0.86466 0.93161,2.27479 0.6192,3.21068 -0.15721,0.47537 -0.91228,1.23179 -1.45085,1.45594 -0.516,0.21446 -1.43554,0.29306 -2.0128,0.17132 z"
     id="path92"
     inkscape:connector-curvature="0" />
  <path
     style="fill:#252525;fill-opacity:1;stroke:#252525;stroke-width:0.10880954;stroke-opacity:1"
     d="m 632.46486,913.90103 c -1.26096,-0.63983 -1.73745,-2.25625 -1.15535,-3.91788 0.18544,-0.5243 0.69499,-1.0788 1.28597,-1.39473 0.60389,-0.3229 1.86446,-0.32613 2.56226,-0.008 1.89912,0.87011 2.39778,2.92749 1.07392,4.43142 -0.70869,0.80546 -1.2771,1.08272 -2.32078,1.13259 -0.78327,0.0363 -0.94291,0.0127 -1.44602,-0.24511 z"
     id="path94"
     inkscape:connector-curvature="0" />
  <path
     style="fill:#252525;fill-opacity:1;stroke:#252525;stroke-width:0.10880954;stroke-opacity:1"
     d="m 632.97523,901.23724 c -1.26904,-0.41644 -1.89912,-1.36962 -1.88462,-2.85022 0,-1.83019 1.05579,-2.94526 2.75052,-2.95586 1.17874,-0.008 2.24461,0.57238 2.80495,1.52533 0.56397,0.95972 0.35474,2.33643 -0.50632,3.31614 -0.67604,0.77014 -2.27322,1.25699 -3.16453,0.96461 z"
     id="path96"
     inkscape:connector-curvature="0" />
  <path
     style="fill:#252525;fill-opacity:1;stroke:#252525;stroke-width:0.10880954;stroke-opacity:1"
     d="m 632.59548,888.18103 c -0.54502,-0.24791 -1.18035,-0.94263 -1.36941,-1.49652 -0.0807,-0.23219 -0.14104,-0.79564 -0.14104,-1.25206 0,-1.7669 1.06749,-2.90521 2.7223,-2.91936 0.93646,-0.008 1.64637,0.28744 2.32886,0.9702 0.86591,0.86608 1.04611,1.59138 0.68007,2.73927 -0.24994,0.77744 -1.16624,1.72006 -1.92775,1.97912 -0.70908,0.24107 -1.73866,0.23178 -2.29297,-0.0201 z"
     id="path98"
     inkscape:connector-curvature="0" />
  <path
     style="fill:#252525;fill-opacity:1;stroke:#252525;stroke-width:0.10880954;stroke-opacity:1"
     d="m 632.59548,901.12936 c -2.14301,-0.97593 -2.0378,-4.68867 0.1572,-5.53578 0.76595,-0.2959 1.79068,-0.24752 2.54171,0.1198 1.91484,0.93698 2.2837,3.07213 0.79295,4.59118 -0.92962,0.94722 -2.43972,1.30387 -3.49188,0.82468 z"
     id="path100"
     inkscape:connector-curvature="0" />
  <path
     style="fill:#252525;fill-opacity:1;stroke:#252525;stroke-width:0.10880954;stroke-opacity:1"
     d="m 632.47374,875.3432 c -0.57486,-0.27009 -0.98847,-0.8177 -1.24889,-1.65479 -0.5418,-1.74001 -0.0403,-3.16078 1.35854,-3.81191 1.25573,-0.58661 3.12017,-0.63612 3.86919,-0.10285 0.44908,0.31969 0.58775,0.84214 0.52325,1.97134 -0.0888,1.54735 -0.76473,2.7081 -1.99989,3.43211 -0.67726,0.39668 -1.84511,0.47425 -2.5022,0.1661 z"
     id="path104"
     inkscape:connector-curvature="0" />
  <path
     style="fill:#252525;fill-opacity:1;stroke:#252525;stroke-width:0.10880954;stroke-opacity:1"
     d="m 633.29087,862.23121 c -1.68426,-0.69286 -2.40342,-1.62331 -2.23009,-2.88631 0.2177,-1.60112 1.64072,-2.72826 3.55798,-2.82153 1.13037,-0.0548 1.8044,0.1814 2.17002,0.76093 0.19754,0.31565 0.22172,0.48384 0.18141,1.34035 -0.14516,3.00961 -1.61935,4.45336 -3.67812,3.60656 z"
     id="path106"
     inkscape:connector-curvature="0" />
  <path
     style="fill:#252525;fill-opacity:1;stroke:#252525;stroke-width:0.10880954;stroke-opacity:1"
     d="m 632.41569,848.51755 c -0.96831,-0.26083 -1.32386,-0.63643 -1.52946,-1.61617 -0.17334,-0.82323 0.0402,-1.93407 0.49343,-2.71287 0.55792,-0.93659 1.68829,-1.34801 3.16653,-1.15233 1.57219,0.20801 2.58445,1.44406 2.59735,3.17214 0,1.26783 -0.46844,1.96403 -1.5742,2.29237 -0.6833,0.20278 -2.42843,0.21205 -3.15365,0.0162 z"
     id="path108"
     inkscape:connector-curvature="0" />
  <path
     style="fill:#252525;fill-opacity:1;stroke:#252525;stroke-width:0.1538799;stroke-opacity:1"
     d="m 632.80753,835.44453 c -1.17713,-0.5347 -1.85841,-1.74594 -1.73022,-3.07555 0.14913,-1.52294 1.06627,-2.53998 2.46914,-2.73223 0.59703,-0.0818 0.86631,-0.0282 1.57259,0.31807 0.98201,0.4806 1.55002,1.14652 1.87091,2.19421 0.42247,1.38038 -0.0483,2.70137 -1.16301,3.27067 -0.79054,0.40312 -2.16157,0.41437 -3.01941,0.0242 z"
     id="path110"
     inkscape:connector-curvature="0" />
  <path
     style="fill:#252525;fill-opacity:1;stroke:#252525;stroke-width:0.1538799;stroke-opacity:1"
     d="m 632.64788,822.37132 c -1.52341,-0.71414 -2.0398,-2.70316 -1.12431,-4.33183 1.01628,-1.80882 4.1421,-1.60455 5.15194,0.33661 0.27412,0.52794 0.27815,1.67914 0,2.3208 -0.6438,1.52308 -2.61305,2.34046 -4.03447,1.67434 z"
     id="path112"
     inkscape:connector-curvature="0" />
  <path
     style="fill:#252525;fill-opacity:1;stroke:#252525;stroke-width:0.1538799;stroke-opacity:1"
     d="m 632.791,809.56806 c -1.06909,-0.32773 -1.8713,-1.85094 -1.68627,-3.20152 0.20963,-1.54163 1.23558,-2.48587 2.6969,-2.48587 1.84148,0 3.12583,1.14689 3.12583,2.79115 0,1.95951 -2.18977,3.49272 -4.13646,2.89624 z"
     id="path114"
     inkscape:connector-curvature="0" />
  <path
     style="fill:#252525;fill-opacity:1;stroke:#252525;stroke-width:0.30775979;stroke-opacity:1"
     d="m 632.55638,704.89108 c -1.72578,-0.90102 -1.95556,-3.61607 -0.40878,-4.83282 1.7802,-1.40001 4.71738,-0.1488 4.71738,2.00958 0,2.086 -2.53646,3.74822 -4.3086,2.82324 z"
     id="path116"
     inkscape:connector-curvature="0" />
  <path
     style="fill:#252525;fill-opacity:1;stroke:#252525;stroke-width:0.30775979;stroke-opacity:1"
     d="m 632.56242,717.81143 c -1.64112,-0.83911 -1.94105,-3.28225 -0.58009,-4.73087 1.54034,-1.63935 4.88265,-0.32975 4.88265,1.91319 0,2.04638 -2.54735,3.71479 -4.30256,2.81768 z"
     id="path118"
     inkscape:connector-curvature="0" />
  <path
     style="fill:#252525;fill-opacity:1;stroke:#252525;stroke-width:0.30775979;stroke-opacity:1"
     d="m 632.66159,730.66749 c -2.55863,-1.07587 -1.72174,-5.38627 1.04611,-5.38627 1.91687,0 3.13107,1.0324 3.14759,2.67574 0,1.9807 -2.32521,3.49622 -4.1937,2.71053 z"
     id="path120"
     inkscape:connector-curvature="0" />
  <path
     style="fill:#252525;fill-opacity:1;stroke:#252525;stroke-width:0.30775979;stroke-opacity:1"
     d="m 632.31934,743.54083 c -0.70587,-0.2838 -1.37304,-1.9768 -1.17309,-2.97639 0.466,-2.33051 2.90814,-3.12906 4.77179,-1.56054 1.29081,1.0861 1.30935,2.58142 0.0483,3.84332 -0.6954,0.69547 -1.16665,0.89408 -2.07731,0.8753 -0.64782,-0.0127 -1.35368,-0.0951 -1.56895,-0.18181 z"
     id="path122"
     inkscape:connector-curvature="0" />
  <path
     style="fill:#252525;fill-opacity:1;stroke:#252525;stroke-width:0.30775979;stroke-opacity:1"
     d="m 632.15204,756.23732 c -1.64152,-1.5213 -1.31337,-4.18826 0.61476,-4.99375 1.73424,-0.72477 3.4435,0.21326 4.11914,2.26101 0.40313,1.21761 -0.0444,2.68663 -0.96589,3.17989 -1.0574,0.5659 -2.91218,0.34588 -3.76801,-0.44715 z"
     id="path124"
     inkscape:connector-curvature="0" />
  <path
     style="fill:#252525;fill-opacity:1;stroke:#252525;stroke-width:0.30775979;stroke-opacity:1"
     d="m 631.7731,769.76652 c -0.60024,-0.60018 -0.75545,-1.07099 -0.75545,-2.29076 0,-1.94234 0.66435,-2.49353 3.00611,-2.49353 1.32909,0 1.78099,0.14262 2.39374,0.75542 0.83165,0.83152 0.92196,1.44427 0.4245,2.87145 -0.68451,1.96406 -3.59709,2.62911 -5.0689,1.15742 z"
     id="path126"
     inkscape:connector-curvature="0" />
  <path
     style="fill:#252525;fill-opacity:1;stroke:#252525;stroke-width:0.30775979;stroke-opacity:1"
     d="m 632.63297,783.74301 c -1.01224,-0.40273 -1.74392,-2.12982 -1.48552,-3.5071 0.15325,-0.81351 0.48456,-1.29254 1.19487,-1.72578 1.1098,-0.67668 3.57168,-0.8146 4.15339,-0.23259 0.47931,0.47934 0.46722,2.65384 0,3.60191 -0.74094,1.44177 -2.61669,2.35142 -3.84258,1.86364 z"
     id="path128"
     inkscape:connector-curvature="0" />
  <path
     style="fill:#252525;fill-opacity:1;stroke:#252525;stroke-width:0.30775979;stroke-opacity:1"
     d="m 632.19478,796.36199 c -0.85705,-0.50012 -1.28477,-2.26923 -0.85947,-3.55729 0.6841,-2.07336 3.79059,-2.47035 5.06728,-0.64758 1.28879,1.83997 -0.20963,4.53334 -2.51429,4.51503 -0.64782,-0.005 -1.40973,-0.14468 -1.69352,-0.31 z"
     id="path130"
     inkscape:connector-curvature="0" />
  <path
     style="fill:#252525;fill-opacity:1;stroke:#252525;stroke-width:0.21761906;stroke-opacity:1"
     d="m 414.51143,800.57633 c -0.39507,-0.1947 -0.87115,-0.64911 -1.0578,-1.00966 -0.43699,-0.84503 -0.12504,-2.00683 0.8389,-3.10221 1.60403,-1.82681 3.50275,-1.86619 4.42026,-0.0914 0.439,0.84889 0.42249,2.80897 -0.0403,3.45405 -0.74054,1.05772 -2.7969,1.42711 -4.17195,0.74949 z"
     id="path142"
     inkscape:connector-curvature="0" />
  <path
     style="fill:#252525;fill-opacity:1;stroke:#252525;stroke-width:0.21761906;stroke-opacity:1"
     d="m 423.49949,791.60581 c -1.02957,-0.44764 -1.62901,-1.83942 -1.63104,-3.78689 -0.003,-1.85159 1.07271,-2.45047 3.36327,-1.87371 2.49171,0.62742 3.06255,3.72394 0.96911,5.25719 -0.64378,0.47141 -2.05916,0.68276 -2.70134,0.40341 z"
     id="path144"
     inkscape:connector-curvature="0" />
  <path
     style="fill:#252525;fill-opacity:1;stroke:#252525;stroke-width:0.21761906;stroke-opacity:1"
     d="m 430.79041,780.73619 c -1.17066,-1.1708 -1.31015,-3.50752 -0.26606,-4.45271 0.66315,-0.60006 1.94184,-1.02213 3.09681,-1.02213 1.89387,0 2.55419,1.12347 1.94628,3.31191 -0.65911,2.37381 -3.34876,3.59144 -4.77703,2.16293 z"
     id="path146"
     inkscape:connector-curvature="0" />
  <path
     style="fill:#252525;fill-opacity:1;stroke:#252525;stroke-width:0.21761906;stroke-opacity:1"
     d="m 439.75188,770.29332 c -1.37305,-1.28235 -1.07192,-4.06709 0.51721,-4.7913 0.7748,-0.35314 2.17525,-0.31202 2.94522,0.0859 0.80786,0.41783 1.50124,1.51832 1.50124,2.38323 0,2.32817 -3.30321,3.87349 -4.96367,2.32224 z"
     id="path148"
     inkscape:connector-curvature="0" />
  <path
     style="fill:#252525;fill-opacity:1;stroke:#252525;stroke-width:0.21761906;stroke-opacity:1"
     d="m 448.22556,760.53871 c -0.40434,-0.206 -0.91832,-0.67448 -1.14165,-1.04107 -0.51036,-0.83653 -0.53697,-2.55787 -0.0525,-3.37811 1.53914,-2.60584 5.53773,-1.05251 5.5865,2.17022 0,0.95573 -0.0726,1.1929 -0.66314,1.78202 -0.5559,0.55606 -0.8897,0.6943 -1.83703,0.76054 -0.79859,0.0556 -1.38514,-0.0363 -1.89266,-0.29348 z"
     id="path150"
     inkscape:connector-curvature="0" />
  <path
     style="fill:#252525;fill-opacity:1;stroke:#252525;stroke-width:0.21761906;stroke-opacity:1"
     d="m 456.68634,750.51598 c -0.80988,-0.29791 -1.08803,-0.78388 -1.08359,-1.8923 0,-2.07631 1.19808,-3.76906 2.79848,-3.9837 1.13843,-0.15277 1.88057,0.31444 2.43326,1.53176 0.61759,1.36027 0.55309,2.60402 -0.17737,3.41867 -0.77925,0.86933 -2.82671,1.34655 -3.97159,0.92557 z"
     id="path152"
     inkscape:connector-curvature="0" />
  <path
     style="fill:#252525;fill-opacity:1;stroke:#252525;stroke-width:0.21761906;stroke-opacity:1"
     d="m 464.98224,739.85256 c -2.18291,-1.07542 -2.01764,-4.08598 0.2701,-4.96053 1.84994,-0.70647 3.3798,0.0162 3.92523,1.85256 0.42167,1.42042 0.14104,2.47475 -0.80989,3.05533 -0.85825,0.5235 -2.38367,0.54719 -3.38745,0.0528 z"
     id="path154"
     inkscape:connector-curvature="0" />
  <path
     style="fill:#252525;fill-opacity:1;stroke:#252525;stroke-width:0.21761906;stroke-opacity:1"
     d="m 473.03305,730.34929 c -1.20816,-1.24678 -1.20856,-3.48847 -4e-4,-4.69664 0.55873,-0.55873 0.82842,-0.66133 1.73949,-0.66133 3.67367,0 4.36301,2.92347 1.29805,5.5027 -1.02836,0.86503 -2.10834,0.81354 -3.03714,-0.14468 z"
     id="path156"
     inkscape:connector-curvature="0" />
  <path
     style="fill:#252525;fill-opacity:1;stroke:#252525;stroke-width:0.21761906;stroke-opacity:1"
     d="m 481.44303,720.29831 c -1.93136,-1.04796 -1.57298,-4.47876 0.55188,-5.28759 1.03725,-0.39466 2.33208,-0.0604 3.2246,0.83237 0.83285,0.83298 0.97354,1.56812 0.52446,2.74383 -0.67322,1.76299 -2.711,2.57392 -4.30094,1.71139 z"
     id="path158"
     inkscape:connector-curvature="0" />
  <path
     style="fill:#252525;fill-opacity:1;stroke:#252525;stroke-width:0.21761906;stroke-opacity:1"
     d="m 489.85061,710.18601 c -0.49141,-0.2431 -0.99934,-0.67504 -1.12915,-0.95972 -1.06707,-2.34192 0.0403,-4.63662 2.31757,-4.85661 2.02649,-0.19472 3.51282,1.15967 3.51282,3.20141 0,1.28681 -0.52044,2.14786 -1.59193,2.63446 -1.17552,0.53358 -2.00273,0.52838 -3.10931,-0.0201 z"
     id="path160"
     inkscape:connector-curvature="0" />
  <path
     style="fill:#252525;fill-opacity:1;stroke:#252525;stroke-width:0.21761906;stroke-opacity:1"
     d="m 498.08121,699.62551 c -1.19568,-0.83742 -1.51292,-2.9523 -0.63774,-4.25261 1.19325,-1.7731 4.24289,-1.40235 5.08744,0.61839 0.5692,1.36217 -0.0564,2.92616 -1.45892,3.65174 -0.81391,0.42087 -2.37803,0.41168 -2.99078,-0.0162 z"
     id="path162"
     inkscape:connector-curvature="0" />
  <path
     style="fill:#252525;fill-opacity:1;stroke:#252525;stroke-width:0.21761906;stroke-opacity:1"
     d="m 505.97681,689.55411 c -1.57742,-0.96399 -1.48592,-2.66671 0.23381,-4.32129 1.61572,-1.5557 3.23669,-1.49338 4.06551,0.15642 0.4765,0.94831 0.49867,2.77768 0.0403,3.4303 -0.79415,1.13419 -3.0581,1.51749 -4.33922,0.73475 z"
     id="path164"
     inkscape:connector-curvature="0" />
  <path
     style="fill:#252525;fill-opacity:1;stroke:#252525;stroke-width:0.21761906;stroke-opacity:1"
     d="m 514.22474,679.357 c -0.47527,-0.34629 -0.74013,-1.14596 -0.74013,-2.23457 0,-1.32792 0.42166,-2.43201 1.11382,-2.91672 1.08804,-0.76207 3.94338,-0.17213 4.53718,0.93726 0.32653,0.61118 0.27413,1.89618 -0.10475,2.6337 -0.1814,0.35193 -0.73812,0.8476 -1.23558,1.10141 -0.94613,0.48258 -3.15727,0.77929 -3.56927,0.47892 z"
     id="path166"
     inkscape:connector-curvature="0" />
  <path
     style="fill:#252525;fill-opacity:1;stroke:#252525;stroke-width:0.21761906;stroke-opacity:1"
     d="m 522.96045,669.19269 c -2.44253,-2.44258 -1.40891,-4.80383 2.10432,-4.80699 1.89025,-0.002 2.24984,0.31283 2.21153,1.93465 -0.0564,2.41214 -0.97192,3.83097 -2.47074,3.83097 -0.75788,0 -1.02595,-0.13913 -1.84511,-0.95863 z"
     id="path168"
     inkscape:connector-curvature="0" />
  <path
     style="fill:#252525;fill-opacity:1;stroke:#252525;stroke-width:0.21761906;stroke-opacity:1"
     d="m 531.63853,659.89179 c -0.75668,-0.36724 -1.20657,-1.40703 -1.33193,-3.07834 -0.10079,-1.35256 -0.0564,-1.64285 0.31846,-2.10402 0.37088,-0.45811 0.60591,-0.531 1.62339,-0.50718 2.26234,0.0528 3.39835,0.91921 3.58257,2.73186 0.2177,2.12689 -2.27724,3.88636 -4.19129,2.95768 z"
     id="path170"
     inkscape:connector-curvature="0" />
  <path
     style="fill:#252525;fill-opacity:1;stroke:#252525;stroke-width:0.21761906;stroke-opacity:1"
     d="m 539.03345,648.95522 c -0.67886,-0.67877 -0.74015,-0.84889 -0.74015,-2.05981 0,-1.15923 0.0807,-1.41134 0.65952,-2.07113 0.87881,-1.00067 1.98659,-1.20236 3.33343,-0.60663 1.17875,0.52141 1.72458,1.28772 1.72458,2.42141 0,1.73223 -1.42424,3.0561 -3.28748,3.0561 -0.79054,0 -1.07474,-0.12456 -1.6899,-0.73994 z"
     id="path172"
     inkscape:connector-curvature="0" />
  <path
     style="fill:#252525;fill-opacity:1;stroke:#252525;stroke-width:0.21761906;stroke-opacity:1"
     d="m 547.43336,639.25351 c -0.23785,-0.1496 -0.31444,-0.5441 -0.2822,-1.42622 0.0846,-2.47826 0.85867,-3.57677 2.63483,-3.74742 1.17309,-0.11283 2.26596,0.3092 2.64812,1.02274 0.67403,1.25999 -0.0645,3.19089 -1.51373,3.9615 -0.81914,0.43538 -2.91741,0.54938 -3.48541,0.18947 z"
     id="path174"
     inkscape:connector-curvature="0" />
  <path
     style="fill:#252525;fill-opacity:1;stroke:#252525;stroke-width:0.21761906;stroke-opacity:1"
     d="m 347.29721,618.45279 c -0.22574,-0.58623 0.0685,-3.01928 0.45634,-3.76688 0.65306,-1.26226 2.64046,-1.72063 3.96352,-0.91392 1.80842,1.10282 1.16907,3.94013 -1.07996,4.78976 -0.98121,0.37087 -3.18349,0.29872 -3.3399,-0.10887 z"
     id="path176"
     inkscape:connector-curvature="0" />
  <path
     style="fill:#252525;fill-opacity:1;stroke:#252525;stroke-width:0.21761906;stroke-opacity:1"
     d="m 360.32459,618.53208 c -0.6591,-0.65891 -0.10475,-3.52589 0.86149,-4.45102 0.56196,-0.53813 0.81593,-0.61949 1.93338,-0.61949 1.09488,0 1.37063,0.0843 1.85156,0.56522 1.21863,1.21866 0.77601,3.30978 -0.90421,4.27321 -0.95501,0.5474 -3.28265,0.69177 -3.74222,0.2322 z"
     id="path178"
     inkscape:connector-curvature="0" />
  <path
     style="fill:#252525;fill-opacity:1;stroke:#252525;stroke-width:0.21761906;stroke-opacity:1"
     d="m 374.51782,618.48443 c -1.55083,-0.67531 -1.88824,-3.54347 -0.55632,-4.73333 0.3749,-0.33379 0.92517,-0.66863 1.22631,-0.74417 1.45004,-0.36403 3.17904,0.62714 3.61159,2.07012 0.20962,0.7031 0.18142,0.96876 -0.20559,1.84015 -0.69137,1.56264 -2.49534,2.2561 -4.07721,1.56723 z"
     id="path180"
     inkscape:connector-curvature="0" />
  <path
     style="fill:#252525;fill-opacity:1;stroke:#252525;stroke-width:0.21761906;stroke-opacity:1"
     d="m 387.48996,618.52705 c -0.77601,-0.41031 -1.52985,-1.63888 -1.52985,-2.49322 0,-2.8829 2.94684,-4.09797 5.05679,-2.08508 1.68586,1.60806 0.42208,4.52662 -2.06602,4.77158 -0.51961,0.0512 -1.15857,-0.0323 -1.46092,-0.19349 z"
     id="path182"
     inkscape:connector-curvature="0" />
  <path
     style="fill:#252525;fill-opacity:1;stroke:#252525;stroke-width:0.21761906;stroke-opacity:1"
     d="m 400.38915,618.58517 c -0.89654,-0.54663 -1.32144,-1.21079 -1.46737,-2.29455 -0.26606,-1.98168 1.07433,-3.49287 2.94563,-3.31879 1.17994,0.10966 1.95596,0.62701 2.57557,1.71625 0.53857,0.94719 0.5922,2.49934 0.10888,3.18752 -0.801,1.14345 -2.87349,1.49663 -4.16429,0.70957 z"
     id="path184"
     inkscape:connector-curvature="0" />
  <path
     style="fill:#252525;fill-opacity:1;stroke:#252525;stroke-width:0.21761906;stroke-opacity:1"
     d="m 413.69953,618.79109 c -1.84913,-0.56982 -2.35425,-2.39143 -1.19124,-4.29783 0.48214,-0.79029 1.62057,-1.57412 2.28613,-1.57412 1.33112,0 2.66344,1.75367 2.87267,3.78008 0.16931,1.62238 -0.31041,2.14948 -2.02409,2.23275 -0.70588,0.0363 -1.58065,-0.0282 -1.94347,-0.14072 z"
     id="path186"
     inkscape:connector-curvature="0" />
  <path
     style="fill:#252525;fill-opacity:1;stroke:#252525;stroke-width:0.21761906;stroke-opacity:1"
     d="m 426.43707,618.61943 c -0.45997,-0.37329 -0.53899,-0.61013 -0.51157,-1.53252 0.0444,-1.54754 0.4261,-2.52594 1.27065,-3.26719 0.90904,-0.79851 1.85599,-1.02895 2.65256,-0.64578 1.30532,0.62771 2.17245,2.97144 1.5609,4.21919 -0.49866,1.01745 -1.3029,1.44484 -2.93958,1.56158 -1.26984,0.0906 -1.56897,0.0412 -2.03296,-0.3354 z"
     id="path188"
     inkscape:connector-curvature="0" />
  <path
     style="fill:#252525;fill-opacity:1;stroke:#252525;stroke-width:0.21761906;stroke-opacity:1"
     d="m 438.98633,618.64813 c -0.0807,-0.0799 -0.14516,-0.74451 -0.14516,-1.4772 0,-2.64333 1.42464,-4.13013 3.57127,-3.72746 1.26905,0.23825 1.8693,0.96903 1.8693,2.27649 0,1.25613 -0.69459,2.27826 -1.88703,2.77644 -0.72804,0.30436 -3.14799,0.41204 -3.40842,0.1515 z"
     id="path190"
     inkscape:connector-curvature="0" />
  <path
     style="fill:#252525;fill-opacity:1;stroke:#252525;stroke-width:0.21761906;stroke-opacity:1"
     d="m 453.05499,618.36881 c -0.90944,-0.55445 -1.23718,-1.20453 -1.22106,-2.42008 0.0403,-1.83167 1.12713,-3.03121 2.7864,-3.03121 0.87962,0 2.23976,0.8077 2.62958,1.56154 1.29765,2.50954 -1.77939,5.36274 -4.19492,3.88975 z"
     id="path192"
     inkscape:connector-curvature="0" />
  <path
     style="fill:#252525;fill-opacity:1;stroke:#252525;stroke-width:0.21761906;stroke-opacity:1"
     d="m 465.91749,618.38293 c -1.37788,-0.84039 -1.60282,-3.35812 -0.41038,-4.6024 1.50285,-1.56864 4.3215,-0.79533 4.89717,1.3437 0.63492,2.35734 -2.37723,4.54502 -4.48679,3.2587 z"
     id="path194"
     inkscape:connector-curvature="0" />
  <path
     style="fill:#252525;fill-opacity:1;stroke:#252525;stroke-width:0.21761906;stroke-opacity:1"
     d="m 478.95334,618.44214 c -1.78624,-0.88075 -1.80358,-4.00165 -0.0403,-5.0838 1.99909,-1.21897 4.81855,0.5176 4.45695,2.74539 -0.3346,2.06767 -2.57717,3.25137 -4.42873,2.33841 z"
     id="path196"
     inkscape:connector-curvature="0" />
  <path
     style="fill:#252525;fill-opacity:1;stroke:#252525;stroke-width:0.21761906;stroke-opacity:1"
     d="m 492.00693,618.58517 c -2.61023,-1.59141 -1.70361,-5.66374 1.26138,-5.66684 1.50002,-0.002 2.99682,1.4539 3.18146,3.09374 0.13295,1.18954 -0.3346,2.20207 -1.23801,2.66868 -0.88888,0.45965 -2.36673,0.41558 -3.20483,-0.0956 z"
     id="path198"
     inkscape:connector-curvature="0" />
  <path
     style="fill:#252525;fill-opacity:1;stroke:#252525;stroke-width:0.21761906;stroke-opacity:1"
     d="m 505.25844,618.65915 c -1.92936,-0.98391 -1.73344,-3.60821 0.37491,-5.02919 1.96403,-1.32362 3.7164,-0.0127 3.7164,2.7802 0,1.5265 -0.79778,2.40415 -2.2978,2.52722 -0.72684,0.0597 -1.30775,-0.0322 -1.79391,-0.27815 z"
     id="path200"
     inkscape:connector-curvature="0" />
  <path
     style="fill:#252525;fill-opacity:1;stroke:#252525;stroke-width:0.21761906;stroke-opacity:1"
     d="m 518.02459,618.594 c -0.4402,-0.35677 -0.51075,-0.59972 -0.49141,-1.69006 0.0403,-1.44803 0.43095,-2.38251 1.37909,-3.18041 0.93607,-0.78783 1.82172,-0.93215 2.6824,-0.43715 1.47342,0.84773 2.07972,3.62803 1.03361,4.74135 -0.95378,1.01543 -3.64263,1.34616 -4.60369,0.56627 z"
     id="path202"
     inkscape:connector-curvature="0" />
  <path
     style="fill:#252525;fill-opacity:1;stroke:#252525;stroke-width:0.21761906;stroke-opacity:1"
     d="m 531.37286,618.83317 c -0.95742,-0.0924 -1.20372,-0.73888 -0.9296,-2.44064 0.258,-1.59535 0.51601,-2.08245 1.38998,-2.61535 1.18477,-0.72252 3.06978,-0.43743 3.72567,0.56348 0.72522,1.10727 0.2056,3.09129 -1.02394,3.89592 -0.61233,0.40111 -2.15914,0.6931 -3.16211,0.59659 z"
     id="path204"
     inkscape:connector-curvature="0" />
  <path
     style="fill:#252525;fill-opacity:1;stroke:#252525;stroke-width:0.21761906;stroke-opacity:1"
     d="m 544.90656,618.57998 c -1.99143,-0.80457 -1.98539,-4.51033 0,-5.34339 1.00177,-0.41861 1.56454,-0.39667 2.66708,0.10396 1.56333,0.70978 2.0632,2.50752 1.09811,3.95168 -0.82801,1.24004 -2.4893,1.80684 -3.77365,1.28786 z"
     id="path206"
     inkscape:connector-curvature="0" />
  <path
     style="fill:#252525;fill-opacity:1;stroke:#252525;stroke-width:0.21761906;stroke-opacity:1"
     d="m 547.73328,598.12965 c -0.25397,-0.10649 -0.52245,-0.43578 -0.59703,-0.73236 -0.1814,-0.7176 0.20559,-2.66763 0.68934,-3.50356 0.48295,-0.83095 1.79754,-1.34235 2.91219,-1.13317 2.4792,0.46504 2.61506,3.78134 0.20558,5.01475 -0.76029,0.38941 -2.6324,0.59601 -3.21008,0.35434 z"
     id="path208"
     inkscape:connector-curvature="0" />
  <path
     style="fill:#252525;fill-opacity:1;stroke:#252525;stroke-width:0.21761906;stroke-opacity:1"
     d="m 539.86025,587.7078 c -1.03442,-0.55152 -1.56371,-1.46823 -1.56533,-2.71074 -0.003,-1.90355 1.00418,-2.98143 2.78438,-2.98143 1.68467,0 3.08995,1.58459 3.08995,3.48449 0,1.18079 -0.44182,1.88997 -1.43633,2.30539 -0.9675,0.40425 -1.99708,0.36926 -2.87267,-0.0976 z"
     id="path210"
     inkscape:connector-curvature="0" />
  <path
     style="fill:#252525;fill-opacity:1;stroke:#252525;stroke-width:0.21761906;stroke-opacity:1"
     d="m 530.85284,577.00229 c -0.62526,-0.62517 -0.65629,-0.73704 -0.57163,-2.06505 0.0967,-1.55175 0.56115,-2.40102 1.57823,-2.89943 0.85301,-0.41797 2.27281,0.1572 3.27297,1.32559 1.91685,2.23923 0.79092,4.29864 -2.35062,4.29948 -1.12271,3.4e-4 -1.34402,-0.0754 -1.92895,-0.66059 z"
     id="path212"
     inkscape:connector-curvature="0" />
  <path
     style="fill:#252525;fill-opacity:1;stroke:#252525;stroke-width:0.21761906;stroke-opacity:1"
     d="m 523.33899,567.67232 c -1.07553,-0.77927 -1.89791,-2.35291 -1.69998,-3.2535 0.27413,-1.2467 1.56251,-1.98894 3.45397,-1.98894 2.0507,0 2.60984,0.92398 1.99951,3.30599 -0.64259,2.50829 -1.99829,3.2077 -3.7535,1.93645 z"
     id="path214"
     inkscape:connector-curvature="0" />
  <path
     style="fill:#252525;fill-opacity:1;stroke:#252525;stroke-width:0.21761906;stroke-opacity:1"
     d="m 514.61618,557.75412 c -0.71636,-0.60262 -1.13157,-1.88065 -1.13157,-3.48239 0,-0.78706 0.12092,-1.12213 0.56275,-1.56428 0.50433,-0.50407 0.68291,-0.55027 1.71651,-0.4436 2.26557,0.23381 3.48622,1.40517 3.30604,3.17271 -0.11696,1.14081 -0.67524,1.96327 -1.68346,2.4774 -1.05579,0.5383 -2.00554,0.48347 -2.77027,-0.15963 z"
     id="path216"
     inkscape:connector-curvature="0" />
  <path
     style="fill:#252525;fill-opacity:1;stroke:#252525;stroke-width:0.21761906;stroke-opacity:1"
     d="m 505.53942,547.12904 c -2.11438,-2.11451 -0.464,-5.38005 2.71424,-5.36974 1.98941,0.008 2.61749,0.84927 2.18494,2.9318 -0.57729,2.78116 -3.23387,4.10314 -4.89918,2.43794 z"
     id="path218"
     inkscape:connector-curvature="0" />
  <path
     style="fill:#252525;fill-opacity:1;stroke:#252525;stroke-width:0.21761906;stroke-opacity:1"
     d="m 498.08121,537.06407 c -1.06747,-0.74747 -1.43472,-2.44051 -0.83891,-3.86644 0.40515,-0.96921 1.21785,-1.45202 2.44455,-1.45202 3.21331,0 4.2183,3.87105 1.38514,5.33603 -0.81391,0.42082 -2.37803,0.41168 -2.99078,-0.0162 z"
     id="path220"
     inkscape:connector-curvature="0" />
  <path
     style="fill:#252525;fill-opacity:1;stroke:#252525;stroke-width:0.21761906;stroke-opacity:1"
     d="m 489.61518,526.98175 c -0.87397,-0.54896 -1.15656,-1.07553 -1.15656,-2.15345 0,-2.06568 2.54493,-3.94393 4.16751,-3.0756 0.62847,0.33622 1.26258,1.87659 1.26822,3.08009 0.003,0.82765 -0.11695,1.16586 -0.61153,1.72001 -0.51882,0.58066 -0.80303,0.70357 -1.79552,0.77721 -0.91066,0.0674 -1.33676,-0.0127 -1.87212,-0.34829 z"
     id="path222"
     inkscape:connector-curvature="0" />
  <path
     style="fill:#252525;fill-opacity:1;stroke:#252525;stroke-width:0.21761906;stroke-opacity:1"
     d="m 481.10522,516.91944 c -0.88889,-0.25638 -1.20211,-0.98806 -1.00459,-2.34663 0.29026,-2.01059 1.26542,-3.06576 2.82792,-3.06576 1.24203,0 1.96241,0.35395 2.50422,1.23033 0.53736,0.86999 0.78649,2.86219 0.4386,3.51207 -0.43659,0.81585 -3.00731,1.17721 -4.76615,0.66999 z"
     id="path224"
     inkscape:connector-curvature="0" />
  <path
     style="fill:#252525;fill-opacity:1;stroke:#252525;stroke-width:0.21761906;stroke-opacity:1"
     d="m 473.38256,507.56042 c -1.84228,-1.37389 -1.61533,-4.64561 0.387,-5.60908 0.51761,-0.24913 0.86228,-0.26002 1.82616,-0.0577 2.30707,0.48388 3.00126,1.93855 1.85679,3.89096 -0.66234,1.13029 -2.10794,2.24332 -2.9013,2.23363 -0.3104,-0.003 -0.83809,-0.21002 -1.17027,-0.45782 z"
     id="path226"
     inkscape:connector-curvature="0" />
  <path
     style="fill:#252525;fill-opacity:1;stroke:#252525;stroke-width:0.21761906;stroke-opacity:1"
     d="m 464.73795,497.30118 c -1.17027,-0.58482 -1.75359,-3.33756 -0.95017,-4.48449 0.5164,-0.73748 1.96685,-1.32031 3.29959,-1.32584 1.4198,-0.005 2.22161,0.63742 2.2196,1.78069 -0.005,2.91378 -2.46309,5.0818 -4.56902,4.02964 z"
     id="path228"
     inkscape:connector-curvature="0" />
  <path
     style="fill:#252525;fill-opacity:1;stroke:#252525;stroke-width:0.21761906;stroke-opacity:1"
     d="m 456.91572,487.08733 c -0.83326,-0.43998 -1.32749,-1.51265 -1.46778,-3.18316 -0.12092,-1.42634 -0.0927,-1.5522 0.43699,-2.08215 0.62645,-0.62669 1.34159,-0.7082 2.86017,-0.32572 2.55259,0.64282 3.09842,3.87685 0.89776,5.31892 -0.73652,0.48258 -2.07569,0.6163 -2.72714,0.27211 z"
     id="path230"
     inkscape:connector-curvature="0" />
  <path
     style="fill:#252525;fill-opacity:1;stroke:#252525;stroke-width:0.21761906;stroke-opacity:1"
     d="m 448.0498,476.58709 c -0.87437,-0.38014 -1.37426,-1.33302 -1.37426,-2.61934 0,-1.86067 1.02193,-2.93786 2.7864,-2.93786 1.66652,0 3.27015,1.68881 2.99521,3.15449 -0.26202,1.39175 -1.85557,2.73609 -3.21734,2.71272 -0.27412,-0.005 -0.80866,-0.14437 -1.19001,-0.31001 z"
     id="path232"
     inkscape:connector-curvature="0" />
  <path
     style="fill:#252525;fill-opacity:1;stroke:#252525;stroke-width:0.21761906;stroke-opacity:1"
     d="m 439.11332,466.43694 c -0.36683,-0.37894 -0.34668,-2.63846 0.0403,-3.5382 0.48054,-1.14994 1.30733,-1.66171 2.68402,-1.66171 1.01869,0 1.27305,0.0891 1.82049,0.63612 1.17351,1.17343 0.68291,3.4483 -0.92234,4.27841 -0.93322,0.48266 -3.24313,0.66528 -3.60998,0.28541 z"
     id="path234"
     inkscape:connector-curvature="0" />
  <path
     style="fill:#252525;fill-opacity:1;stroke:#252525;stroke-width:0.21761906;stroke-opacity:1"
     d="m 431.68656,456.15035 c -1.10376,-0.39908 -1.83906,-1.35635 -1.67458,-2.17925 0.31847,-1.59209 2.31999,-3.39741 3.7664,-3.39741 0.48736,0 0.84332,0.20277 1.33031,0.75703 1.73746,1.97906 0.6333,5.14613 -1.779,5.10214 -0.49947,-0.008 -1.23879,-0.13629 -1.64313,-0.28259 z"
     id="path236"
     inkscape:connector-curvature="0" />
  <path
     style="fill:#252525;fill-opacity:1;stroke:#252525;stroke-width:0.21761906;stroke-opacity:1"
     d="m 423.09799,446.42264 c -0.53415,-0.32734 -1.22027,-1.87449 -1.22591,-2.76532 0,-1.07861 0.53777,-2.16143 1.34201,-2.6659 0.57687,-0.36162 0.99088,-0.43659 2.07689,-0.37531 1.14084,0.064 1.46011,0.17576 2.00998,0.70276 0.89897,0.86108 1.04289,1.81177 0.45715,3.02147 -0.60792,1.25613 -1.87533,2.13748 -3.22904,2.246 -0.56638,0.0456 -1.21058,-0.0282 -1.43108,-0.16367 z"
     id="path238"
     inkscape:connector-curvature="0" />
  <path
     style="fill:#252525;fill-opacity:1;stroke:#252525;stroke-width:0.21761906;stroke-opacity:1"
     d="m 416.02194,436.69463 c -0.71152,-0.11774 -2.31474,-1.77726 -2.62474,-2.71637 -0.20561,-0.6288 -0.19351,-0.92264 0.0645,-1.54265 0.44182,-1.05755 1.41455,-1.52146 3.22982,-1.54081 1.92371,-0.0201 2.24742,0.27815 2.21518,2.0444 -0.0444,2.37444 -1.30533,4.01701 -2.88396,3.75543 z"
     id="path240"
     inkscape:connector-curvature="0" />
  <path
     style="fill:#252525;fill-opacity:1;stroke:#252525;stroke-width:0.30775979;stroke-opacity:1"
     d="m 633.4372,532.52553 c -1.27871,-0.25961 -2.25468,-1.59262 -2.25468,-3.0789 0,-2.83534 2.74528,-3.8769 4.80083,-1.8214 2.28732,2.28709 0.59742,5.53889 -2.54615,4.9003 z"
     id="path242"
     inkscape:connector-curvature="0" />
  <path
     style="fill:#252525;fill-opacity:1;stroke:#252525;stroke-width:0.30775979;stroke-opacity:1"
     d="m 632.56725,519.12865 c -1.01707,-0.58332 -1.36497,-1.25175 -1.37504,-2.64362 0,-2.34101 2.0902,-3.51262 4.28078,-2.37981 1.98377,1.026 1.72578,4.04694 -0.42289,4.94458 -1.28072,0.53527 -1.6657,0.54747 -2.48285,0.0791 z"
     id="path244"
     inkscape:connector-curvature="0" />
  <path
     style="fill:#252525;fill-opacity:1;stroke:#252525;stroke-width:0.30775979;stroke-opacity:1"
     d="m 632.56725,506.2191 c -1.37384,-0.75154 -1.79832,-2.40173 -1.04328,-4.05873 0.92356,-2.02693 4.29449,-1.76803 5.19185,0.39868 0.94573,2.28234 -1.96805,4.85265 -4.14857,3.66002 z"
     id="path246"
     inkscape:connector-curvature="0" />
  <path
     style="fill:#252525;fill-opacity:1;stroke:#252525;stroke-width:0.30775979;stroke-opacity:1"
     d="m 631.97507,492.93054 c -0.58493,-0.58522 -0.79255,-1.11222 -0.79255,-2.01268 0,-1.64963 0.22979,-2.13694 1.25292,-2.66647 1.09972,-0.56881 1.93177,-0.56969 3.02747,-0.003 2.54331,1.31524 1.55404,4.90519 -1.46335,5.30989 -1.03684,0.13913 -1.35692,0.0402 -2.02449,-0.62759 z"
     id="path248"
     inkscape:connector-curvature="0" />
  <path
     style="fill:#252525;fill-opacity:1;stroke:#252525;stroke-width:0.30775979;stroke-opacity:1"
     d="m 631.97507,480.00463 c -0.61073,-0.61063 -0.79052,-1.09658 -0.78286,-2.11477 0,-2.53842 2.15268,-3.77186 4.31504,-2.49437 1.26824,0.749 1.67499,1.90501 1.12956,3.20984 -0.57285,1.37047 -1.1739,1.8306 -2.64934,2.02848 -1.02313,0.13708 -1.34724,0.0363 -2.0124,-0.62918 z"
     id="path250"
     inkscape:connector-curvature="0" />
  <path
     style="fill:#252525;fill-opacity:1;stroke:#252525;stroke-width:0.30775979;stroke-opacity:1"
     d="m 633.16953,467.36465 c -2.22283,-0.96827 -2.69126,-2.91226 -1.08763,-4.51577 0.75465,-0.75464 1.14769,-0.89958 2.44011,-0.89958 1.58266,0 2.50784,0.5254 2.50784,1.42449 0,1.26892 -0.76715,3.26632 -1.46495,3.81541 -0.89896,0.70717 -1.1352,0.72441 -2.39537,0.17537 z"
     id="path252"
     inkscape:connector-curvature="0" />
  <path
     style="fill:#252525;fill-opacity:1;stroke:#252525;stroke-width:0.30775979;stroke-opacity:1"
     d="m 632.41327,453.74572 c -1.53953,-0.62126 -1.99506,-2.33124 -1.08844,-4.08483 0.53697,-1.03848 1.01305,-1.25302 2.77915,-1.25302 1.10979,0 1.46536,0.15799 2.1289,0.94688 1.00135,1.18983 1.08883,3.0022 0.18543,3.82055 -0.62323,0.56429 -3.13308,0.92182 -4.00384,0.57042 z"
     id="path254"
     inkscape:connector-curvature="0" />
  <path
     style="fill:#252525;fill-opacity:1;stroke:#252525;stroke-width:0.30775979;stroke-opacity:1"
     d="m 632.8309,440.73221 c -1.82897,-0.78178 -2.23572,-3.47929 -0.749,-4.96618 1.05457,-1.05469 1.94951,-1.13044 3.33989,-0.283 1.60161,0.97654 2.13535,3.27995 1.06626,4.60039 -0.60872,0.75167 -2.5925,1.10356 -3.65715,0.64858 z"
     id="path256"
     inkscape:connector-curvature="0" />
  <path
     style="fill:#252525;fill-opacity:1;stroke:#252525;stroke-width:0.30775979;stroke-opacity:1"
     d="m 631.93758,427.03254 c -1.67659,-1.67656 -0.50391,-4.90736 1.78101,-4.90736 1.30773,0 2.6195,0.80548 3.01779,1.85323 1.00297,2.63809 -2.79649,5.05629 -4.7988,3.05413 z"
     id="path258"
     inkscape:connector-curvature="0" />
  <path
     style="fill:#252525;fill-opacity:1;stroke:#252525;stroke-width:0.30775979;stroke-opacity:1"
     d="m 631.93758,414.10662 c -1.02918,-1.02925 -1.03765,-2.88287 0,-4.06764 1.63185,-1.89692 4.92618,-0.60622 4.92618,1.92995 0,2.41504 -3.225,3.81996 -4.90723,2.13769 z"
     id="path260"
     inkscape:connector-curvature="0" />
  <path
     style="fill:#252525;fill-opacity:1;stroke:#252525;stroke-width:0.30775979;stroke-opacity:1"
     d="m 631.82028,401.12522 c -1.47142,-1.87062 -0.30638,-4.85188 1.89831,-4.85188 1.30773,0 2.6195,0.80548 3.01779,1.85324 1.01991,2.68255 -3.15969,5.23185 -4.9161,2.99864 z"
     id="path262"
     inkscape:connector-curvature="0" />
  <path
     style="fill:#252525;fill-opacity:1;stroke:#252525;stroke-width:0.30775979;stroke-opacity:1"
     d="m 632.52534,388.95798 c -0.84455,-0.40889 -1.34282,-1.51743 -1.34282,-2.98622 0,-1.66909 1.04289,-2.56338 3.1984,-2.74214 1.52784,-0.12662 1.70803,-0.0718 2.19139,0.6656 0.99289,1.51526 -0.0403,4.22338 -1.90355,5.0031 -1.1594,0.48432 -1.26059,0.48714 -2.14342,0.0596 z"
     id="path264"
     inkscape:connector-curvature="0" />
  <path
     style="fill:#252525;fill-opacity:1;stroke:#252525;stroke-width:0.30775979;stroke-opacity:1"
     d="m 632.0045,375.14765 c -0.85543,-0.67301 -1.31942,-2.26748 -1.01386,-3.48488 0.25397,-1.00548 1.68466,-1.53821 3.63216,-1.35107 1.86687,0.17939 2.40705,0.73352 2.40705,2.46974 0,2.50957 -3.02948,3.93607 -5.02535,2.36621 z"
     id="path266"
     inkscape:connector-curvature="0" />
  <path
     style="fill:#252525;fill-opacity:1;stroke:#252525;stroke-width:0.30775979;stroke-opacity:1"
     d="m 632.65191,361.75538 c -1.78947,-0.97114 -1.96644,-2.7781 -0.42328,-4.32134 1.43513,-1.43501 3.01014,-1.47612 3.84662,-0.10047 0.85381,1.40376 1.07715,3.28363 0.49584,4.17102 -0.38296,0.58244 -0.74255,0.72791 -1.77979,0.71812 -0.71555,-0.008 -1.6782,-0.21728 -2.13939,-0.46741 z"
     id="path268"
     inkscape:connector-curvature="0" />
  <path
     style="fill:#252525;fill-opacity:1;stroke:#252525;stroke-width:0.30775979;stroke-opacity:1"
     d="m 631.82028,348.1905 c -1.51012,-1.91976 -0.33057,-4.72876 1.98417,-4.72876 1.444,0 2.18373,0.41727 2.77834,1.56678 0.99168,1.91839 -0.51036,3.9729 -2.90533,3.9729 -0.95096,0 -1.35974,-0.17858 -1.85718,-0.81092 z"
     id="path270"
     inkscape:connector-curvature="0" />
  <path
     style="fill:#252525;fill-opacity:1;stroke:#252525;stroke-width:0.30775979;stroke-opacity:1"
     d="m 632.8309,336.07052 c -1.72053,-0.67463 -2.23653,-3.43571 -0.89332,-4.77929 1.45205,-1.45189 4.42187,-0.7032 4.90886,1.23759 0.53695,2.13966 -1.96403,4.34585 -4.01554,3.5417 z"
     id="path272"
     inkscape:connector-curvature="0" />
  <path
     style="fill:#252525;fill-opacity:1;stroke:#252525;stroke-width:0.30775979;stroke-opacity:1"
     d="m 632.74907,323.12187 c -1.10254,-0.44082 -1.54598,-1.20393 -1.55686,-2.67917 0,-1.00153 0.17333,-1.50507 0.74537,-2.07738 1.45205,-1.45189 4.42187,-0.70322 4.90886,1.23759 0.3104,1.24151 -0.55593,2.88574 -1.79634,3.40391 -1.23033,0.51418 -1.29483,0.51741 -2.30103,0.11489 z"
     id="path274"
     inkscape:connector-curvature="0" />
  <path
     style="fill:#252525;fill-opacity:1;stroke:#252525;stroke-width:0.30775979;stroke-opacity:1"
     d="m 632.56725,310.15972 c -1.01707,-0.58324 -1.36497,-1.25171 -1.37504,-2.64293 0,-2.38122 2.04787,-3.53509 4.2707,-2.38566 2.03537,1.05244 1.78704,4.03073 -0.41281,4.94978 -1.28072,0.53522 -1.6657,0.54744 -2.48285,0.0789 z"
     id="path276"
     inkscape:connector-curvature="0" />
  <path
     style="fill:#252525;fill-opacity:1;stroke:#252525;stroke-width:0.87047625;stroke-opacity:1"
     d="m 953.28608,417.13808 c -25.09654,-3.22827 -45.60995,-11.92733 -59.47703,-25.22245 l -6.50805,-6.23996 11.78374,-12.56359 c 6.48104,-6.90997 13.1471,-13.86253 14.81322,-15.45016 l 3.02948,-2.88662 5.99246,4.48558 c 7.81095,5.84655 18.09587,10.77105 27.31936,13.08067 10.50865,2.63144 32.93328,3.35919 41.89756,1.35974 16.53218,-3.68743 25.45008,-11.90907 27.61648,-25.45968 2.06,-12.88688 -3.762,-25.22142 -14.4807,-30.68008 -3.5716,-1.81899 -13.47723,-3.93845 -37.18862,-7.95708 -21.6345,-3.66674 -28.29815,-5.45981 -37.86551,-10.18943 -15.04422,-7.43671 -25.70605,-20.30459 -30.49881,-36.80928 -2.39617,-8.25164 -3.3157,-28.23986 -1.74673,-37.96648 4.51297,-27.97562 22.55562,-48.20804 50.96061,-57.14565 22.37101,-7.03899 56.09436,-5.83937 78.47546,2.79156 9.858,3.80167 17.5835,8.72729 32.4693,20.70162 0.483,0.38862 -28.8516,29.8503 -29.7216,29.8503 -0.3426,0 -3.0879,-1.71384 -6.1029,-3.80855 -6.5947,-4.58131 -11.7414,-7.24786 -17.1054,-8.86218 -6.539,-1.96793 -20.76371,-3.25652 -30.73298,-2.78398 -8.04356,0.38136 -10.1136,0.80916 -15.01843,3.10423 -7.24899,3.39233 -13.75824,9.47884 -16.81191,15.71989 -3.41004,6.97019 -3.43947,16.64252 -0.0726,23.82765 5.40228,11.52719 12.94837,14.74925 48.55155,20.73085 28.75807,4.83157 37.35917,7.64458 49.33727,16.1356 11.8442,8.39625 19.3822,22.34815 22.5298,41.69934 6.3178,38.84596 -11.0315,70.50609 -46.0889,84.10495 -16.907,6.55832 -43.80269,9.20568 -65.35657,6.43319 z"
     id="path40"
     inkscape:connector-curvature="0" />
</svg>
